HIERARCHY
ROOT Elbow
{
	OFFSET	0.00	0.00	0.00
	CHANNELS 6 Xposition Yposition Zposition Zrotation Xrotation Yrotation
	JOINT L_Wrist
	{
		OFFSET	 0.208349	 0.000000	 0.000000
		CHANNELS 3 Zrotation Xrotation Yrotation
		JOINT L_index_Proximal
		{
			OFFSET	 0.093499	 0.010637	-0.002083
			CHANNELS 3 Zrotation Xrotation Yrotation
			JOINT L_index_b
			{
				OFFSET	 0.033152	 0.000000	 0.000000
				CHANNELS 3 Zrotation Xrotation Yrotation
				JOINT L_index_c
				{
					OFFSET	 0.018652	 0.000000	 0.000000
					CHANNELS 3 Zrotation Xrotation Yrotation
					End Site
					{
						OFFSET	 0.018652	 0.000000	 0.000000
					}
				}
			}
		}
		JOINT L_middle_Proximal
		{
			OFFSET	 0.090632	-0.006115	-0.003750
			CHANNELS 3 Zrotation Xrotation Yrotation
			JOINT L_middle_b
			{
				OFFSET	 0.037194	 0.000000	 0.000000
				CHANNELS 3 Zrotation Xrotation Yrotation
				JOINT L_middle_c
				{
					OFFSET	 0.021943	 0.000000	 0.000000
					CHANNELS 3 Zrotation Xrotation Yrotation
					End Site
					{
						OFFSET	 0.021943	 0.000000	 0.000000
					}
				}
			}
		}
		JOINT L_pinky_Proximal
		{
			OFFSET	 0.074015	-0.035449	-0.000417
			CHANNELS 3 Zrotation Xrotation Yrotation
			JOINT L_pinky_b
			{
				OFFSET	 0.027285	 0.000000	 0.000000
				CHANNELS 3 Zrotation Xrotation Yrotation
				JOINT L_pinky_c
				{
					OFFSET	 0.015093	 0.000000	 0.000000
					CHANNELS 3 Zrotation Xrotation Yrotation
					End Site
					{
						OFFSET	 0.015093	 0.000000	 0.000000
					}
				}
			}
		}
		JOINT L_ring_Proximal
		{
			OFFSET	 0.082801	-0.021859	-0.003750
			CHANNELS 3 Zrotation Xrotation Yrotation
			JOINT L_ring_b
			{
				OFFSET	 0.034477	 0.000000	 0.000000
				CHANNELS 3 Zrotation Xrotation Yrotation
				JOINT L_ring_c
				{
					OFFSET	 0.021377	 0.000000	 0.000000
					CHANNELS 3 Zrotation Xrotation Yrotation
					End Site
					{
						OFFSET	 0.021377	 0.000000	 0.000000
					}
				}
			}
		}
		JOINT L_thumb_Proximal
		{
			OFFSET	 0.030306	 0.018528	 0.004584
			CHANNELS 3 Zrotation Xrotation Yrotation
			JOINT L_thumb_a
			{
				OFFSET	 0.038520	 0.000000	 0.000000
				CHANNELS 3 Zrotation Xrotation Yrotation
				JOINT L_thumb_b
				{
					OFFSET	 0.026310	 0.000000	 0.000000
					CHANNELS 3 Zrotation Xrotation Yrotation
					End Site
					{
						OFFSET	 0.026310	 0.000000	 0.000000
					}
				}
			}
		}
	}
}
MOTION
Frames:    12
Frame Time: 0.01666667
 1.987475	-0.576882	 1.303729	-72.172810	 16.859210	-32.424270	 5.394058	-0.633741	-3.596601	 0.083085	-0.334549	-69.069340	-0.600239	 0.531660	-83.065580	 2.627492	-1.072153	-44.390150	-9.307698	-8.802414	-79.403210	 2.774672	-2.865277	-91.841450	 1.370173	-0.548539	-43.634540	-31.566350	-15.475730	-85.788830	 0.547542	-0.503896	-85.246820	-0.928618	 0.373473	-43.817660	-21.778130	-8.221684	-86.312690	 1.011156	-1.039365	-91.576680	-1.543128	 0.594600	-42.143510	 78.656110	 42.348330	-52.854210	-3.641097	 0.824010	-25.495440	 1.849954	-1.142545	-63.395610
 1.987448	-0.576903	 1.303797	-72.179370	 16.877820	-32.423890	 5.412782	-0.634806	-3.602643	 0.075586	-0.332243	-69.140360	-0.599915	 0.530835	-83.008350	 2.604566	-1.063104	-44.401940	-9.320049	-8.794125	-79.404720	 2.773631	-2.863873	-91.834890	 1.371164	-0.548697	-43.617690	-31.587810	-15.462370	-85.725980	 0.529417	-0.487094	-85.233250	-0.901855	 0.362682	-43.815550	-21.795340	-8.205767	-86.327610	 0.999121	-1.026538	-91.550750	-1.555177	 0.599292	-42.146710	 78.714660	 42.270660	-52.919270	-3.653655	 0.826346	-25.479760	 1.839754	-1.136275	-63.397240
 1.987221	-0.576803	 1.303988	-72.222790	 16.855580	-32.341610	 5.437157	-0.648402	-3.679790	 0.030489	-0.294928	-69.351100	-0.634994	 0.560841	-82.904840	 2.552005	-1.041785	-44.407050	-9.338972	-8.774101	-79.446490	 2.766676	-2.856509	-91.831280	 1.359653	-0.543698	-43.589470	-31.606960	-15.444120	-85.684820	 0.550426	-0.506313	-85.218990	-0.886656	 0.356307	-43.785750	-21.819580	-8.176486	-86.344510	 0.983605	-1.010315	-91.535480	-1.588083	 0.611937	-42.144340	 78.881050	 42.042390	-53.141020	-3.615135	 0.816658	-25.450900	 1.936261	-1.195412	-63.378210
 1.986968	-0.576556	 1.304029	-72.260680	 16.836770	-32.275190	 5.437594	-0.657974	-3.734416	 0.015349	-0.283584	-69.560100	-0.625164	 0.551264	-82.811610	 2.530510	-1.034518	-44.465710	-9.368789	-8.745467	-79.484670	 2.760183	-2.849568	-91.826480	 1.350964	-0.540464	-43.606820	-31.656090	-15.396180	-85.668140	 0.531435	-0.488650	-85.197270	-0.884903	 0.355285	-43.748760	-21.866960	-8.125358	-86.339360	 0.951656	-0.977394	-91.528490	-1.608273	 0.620448	-42.189790	 79.061830	 41.822980	-53.327670	-3.655239	 0.822381	-25.351550	 1.975586	-1.221857	-63.469030
 1.986956	-0.576465	 1.303892	-72.248940	 16.860940	-32.287410	 5.450559	-0.658388	-3.736730	 0.016569	-0.285479	-69.682530	-0.627575	 0.552978	-82.767900	 2.513254	-1.027775	-44.478240	-9.407713	-8.708622	-79.526980	 2.735737	-2.822888	-91.797130	 1.319418	-0.528162	-43.630650	-31.692090	-15.359260	-85.682110	 0.493695	-0.453878	-85.188160	-0.917361	 0.368205	-43.737470	-21.887750	-8.101581	-86.365420	 0.941409	-0.966923	-91.532230	-1.623500	 0.626695	-42.211980	 79.059600	 41.810040	-53.349350	-3.687979	 0.828084	-25.301700	 1.964568	-1.214592	-63.449150
 1.987057	-0.576410	 1.303759	-72.196010	 16.937690	-32.318650	 5.468121	-0.660259	-3.747365	 0.031925	-0.298943	-69.726470	-0.632486	 0.557101	-82.748070	 2.510230	-1.027176	-44.502880	-9.430126	-8.687956	-79.530040	 2.722274	-2.808041	-91.777730	 1.303886	-0.521824	-43.621520	-31.706310	-15.346420	-85.674690	 0.470301	-0.432332	-85.181370	-0.938910	 0.376617	-43.713020	-21.880290	-8.109015	-86.390720	 0.953963	-0.979704	-91.525730	-1.617537	 0.624361	-42.210460	 78.973060	 41.944820	-53.212820	-3.721535	 0.835526	-25.298960	 1.903958	-1.176726	-63.433430
 1.987083	-0.576321	 1.303782	-72.160240	 16.972400	-32.351650	 5.477691	-0.658664	-3.738274	 0.048211	-0.311516	-69.740540	-0.636187	 0.559934	-82.704990	 2.520869	-1.032119	-44.525940	-9.418782	-8.698071	-79.539040	 2.727603	-2.812553	-91.757470	 1.293849	-0.517793	-43.621060	-31.698370	-15.352700	-85.685680	 0.458054	-0.420907	-85.160320	-0.969361	 0.388813	-43.711520	-21.868320	-8.119309	-86.422880	 0.962784	-0.988447	-91.506780	-1.620061	 0.625349	-42.211300	 78.908340	 42.025700	-53.144030	-3.724854	 0.835390	-25.273550	 1.900283	-1.173100	-63.374070
 1.987052	-0.576346	 1.303739	-72.114880	 17.023210	-32.385530	 5.500756	-0.662578	-3.760536	 0.042677	-0.307662	-69.787150	-0.661388	 0.582345	-82.726880	 2.502711	-1.025860	-44.572170	-9.419059	-8.698360	-79.586650	 2.723765	-2.808850	-91.762770	 1.273739	-0.509649	-43.613710	-31.666880	-15.381630	-85.727410	 0.467494	-0.429457	-85.142530	-1.002467	 0.402192	-43.720520	-21.842920	-8.142819	-86.500710	 0.979958	-1.006166	-91.512000	-1.628293	 0.628364	-42.201620	 78.839800	 42.125530	-53.045930	-3.721250	 0.834283	-25.265010	 1.915714	-1.181865	-63.341040
 1.986971	-0.576463	 1.303631	-72.076710	 17.063350	-32.412120	 5.525112	-0.663355	-3.764943	 0.055630	-0.318303	-69.871160	-0.651944	 0.574091	-82.732880	 2.489046	-1.021060	-44.603760	-9.414269	-8.702643	-79.619320	 2.719260	-2.804844	-91.775860	 1.242558	-0.497120	-43.609800	-31.626270	-15.417020	-85.792550	 0.496271	-0.455879	-85.142020	-1.008144	 0.404501	-43.723540	-21.823140	-8.162010	-86.532170	 0.998910	-1.025753	-91.519000	-1.638649	 0.632757	-42.225410	 78.822700	 42.172070	-52.987360	-3.698989	 0.829244	-25.263690	 1.951097	-1.203607	-63.337080
 1.986827	-0.576547	 1.303484	-72.025480	 17.104310	-32.434140	 5.558033	-0.663470	-3.765613	 0.078368	-0.337641	-69.984270	-0.646616	 0.569446	-82.737530	 2.476927	-1.016962	-44.638020	-9.415547	-8.701829	-79.728690	 2.709929	-2.794615	-91.763660	 1.202022	-0.481094	-43.625290	-31.597120	-15.441530	-85.857750	 0.515800	-0.473822	-85.140950	-1.020327	 0.409619	-43.745960	-21.803870	-8.178765	-86.607190	 1.009375	-1.037247	-91.560810	-1.654351	 0.638870	-42.228540	 78.800780	 42.239480	-52.898650	-3.671235	 0.823071	-25.264750	 1.975004	-1.218281	-63.334280
 1.986676	-0.576682	 1.303208	-71.974520	 17.128060	-32.428390	 5.576710	-0.669420	-3.799426	 0.104839	-0.359365	-70.051070	-0.625885	 0.550942	-82.712340	 2.479706	-1.018936	-44.671220	-9.427602	-8.690146	-79.821880	 2.709162	-2.793128	-91.749150	 1.176877	-0.471338	-43.651330	-31.586790	-15.447620	-85.910430	 0.506195	-0.465100	-85.154110	-1.047350	 0.420520	-43.750240	-21.806210	-8.173144	-86.654640	 1.010154	-1.038854	-91.605090	-1.676874	 0.647790	-42.241310	 78.793970	 42.263940	-52.866380	-3.648598	 0.815849	-25.201270	 2.011104	-1.238111	-63.232890
 1.986492	-0.576748	 1.303117	-71.918060	 17.142720	-32.403210	 5.577761	-0.679257	-3.855274	 0.139559	-0.388184	-70.126320	-0.613014	 0.539706	-82.722170	 2.488085	-1.024014	-44.735700	-9.436530	-8.681653	-79.914150	 2.713205	-2.796746	-91.737960	 1.144839	-0.459098	-43.701740	-31.609580	-15.420650	-85.961930	 0.459383	-0.422294	-85.183820	-1.122758	 0.451310	-43.795710	-21.821910	-8.153628	-86.694210	 0.999356	-1.028455	-91.644250	-1.709298	 0.661271	-42.296950	 78.765740	 42.322750	-52.797220	-3.634725	 0.810800	-25.142360	 2.026957	-1.247170	-63.204810
